<svg width="39" height="39" viewBox="0 0 39 39" fill="none" xmlns="http://www.w3.org/2000/svg">
<path d="M39 19.5C39 30.2696 30.2696 39 19.5 39C8.73045 39 0 30.2696 0 19.5C0 8.73045 8.73045 0 19.5 0C30.2696 0 39 8.73045 39 19.5Z" fill="white"/>
<path d="M11.7867 13.5467L19.3333 6L26.88 13.5467C31.04 17.7067 31.04 24.4667 26.88 28.6267C24.8 30.7067 22.0667 31.7467 19.3333 31.7467C16.6 31.7467 13.8667 30.7067 11.7867 28.6267C7.62667 24.4667 7.62667 17.7067 11.7867 13.5467ZM19.3333 29.0933C21.4667 29.0933 23.48 28.2667 24.9867 26.7467C26.5067 25.2267 27.3333 23.2267 27.3333 21.0933C27.3333 18.96 26.5067 16.9467 24.9867 15.44L19.3333 9.77333V29.0933Z" fill="white"/>
<path d="M27.2133 13.5467L19.6667 6L12.12 13.5467C7.96 17.7067 7.96 24.4667 12.12 28.6267C14.2 30.7067 16.9333 31.7467 19.6667 31.7467C22.4 31.7467 25.1333 30.7067 27.2133 28.6267C31.3733 24.4667 31.3733 17.7067 27.2133 13.5467ZM19.6667 29.0933C17.5333 29.0933 15.52 28.2667 14.0133 26.7467C12.4933 25.2267 11.6667 23.2267 11.6667 21.0933C11.6667 18.96 12.4933 16.9467 14.0133 15.44L19.6667 9.77333V29.0933Z" fill="#0A157A"/>
</svg>
